<svg xmlns="http://www.w3.org/2000/svg" width="36" height="17" viewBox="0 0 36 17">
  <defs>
    <style>
      .cls-1 {
        fill: #fff;
        fill-rule: evenodd;
      }
    </style>
  </defs>
  <path id="Forma_1_copy" data-name="Forma 1 copy" class="cls-1" d="M1584.19,503.134a0.644,0.644,0,0,0,.48.2h26v4.956a0.671,0.671,0,0,0,.39.642,0.62,0.62,0,0,0,.73-0.133l8-7.832a0.746,0.746,0,0,0,.21-0.531,0.715,0.715,0,0,0-.21-0.509l-8-7.745a0.672,0.672,0,0,0-1.12.532v4.955h-26a0.63,0.63,0,0,0-.48.2,0.735,0.735,0,0,0-.19.509v4.248A0.736,0.736,0,0,0,1584.19,503.134Z" transform="translate(-1584 -492)"/>
</svg>
