<svg xmlns="http://www.w3.org/2000/svg" viewBox="0 0 36 16.624">
  <path id="Forma_1" data-name="Forma 1" class="cls-1" d="M117.309,498.423a0.635,0.635,0,0,0-.479-0.195h-26v-4.847a0.652,0.652,0,0,0-.4-0.627,0.632,0.632,0,0,0-.729.129l-8,7.661a0.721,0.721,0,0,0-.208.519,0.7,0.7,0,0,0,.208.5l8,7.574a0.648,0.648,0,0,0,.729.108,0.627,0.627,0,0,0,.4-0.627v-4.847h26a0.637,0.637,0,0,0,.479-0.2,0.682,0.682,0,0,0,.187-0.5v-4.154A0.685,0.685,0,0,0,117.309,498.423Z" transform="translate(-81.5 -492.688)"/>
</svg>
